#!OML:ASF F:\VICON\USERDATA\INSTALL\rory3\rory3.ASF
:FULLY-SPECIFIED
:DEGREES
1765
root 5.85578 14.2933 -9.18642 -361.415 -28.2396 355.329
lowerback 21.2728 5.71632 -3.05952
upperback 0.137829 7.03368 2.0681
thorax -12.4277 3.5132 1.80784
lowerneck -13.6319 -4.201 0.0884798
upperneck 18.3465 -6.60961 3.72326
head 8.05875 -2.77494 0.49383
rclavicle 4.29996e-014 1.36167e-014
rhumerus 38.8312 21.2897 -69.111
rradius 66.5388
rwrist 13.8697
rhand -6.45123 27.489
rfingers 7.12502
rthumb 19.3985 -1.56336
lclavicle 4.29996e-014 1.36167e-014
lhumerus -17.4852 -26.8005 82.7194
lradius 35.3039
lwrist -1.05266
lhand -9.67581 18.2511
lfingers 7.12502
lthumb 16.2958 47.5863
rfemur -27.0446 -28.7357 0.378772
rtibia 48.3059
rfoot -11.2391 -3.47129
rtoes 17.2419
lfemur -34.9038 21.4137 -18.9436
ltibia 74.4543
lfoot -33.6659 3.03745
ltoes 17.2211
1766
root 5.74574 14.2884 -9.24892 -361.425 -27.8443 355.457
lowerback 21.5348 5.6477 -3.3232
upperback 0.0976659 6.8743 2.09803
thorax -12.6471 3.45564 2.01879
lowerneck -14.0513 -4.0518 0.245415
upperneck 18.6261 -6.4351 3.60195
head 8.21468 -2.67984 0.436389
rclavicle 1.94685e-014 -2.00276e-014
rhumerus 38.7234 21.4171 -68.8825
rradius 66.7727
rwrist 13.1029
rhand -6.84059 27.6172
rfingers 7.12502
rthumb 19.0241 -1.4724
lclavicle 1.94685e-014 -2.00276e-014
lhumerus -16.6039 -25.9567 82.1048
lradius 34.4117
lwrist 1.06433
lhand -9.36256 17.4143
lfingers 7.12502
lthumb 16.5974 46.7246
rfemur -27.4125 -29.2544 0.636012
rtibia 49.0383
rfoot -10.5216 -2.04059
rtoes 19.2657
lfemur -35.1343 21.239 -18.5274
ltibia 74.5893
lfoot -33.2919 3.01723
ltoes 16.2985
1767
root 5.64118 14.3128 -9.27245 -361.62 -27.6978 355.588
lowerback 21.1542 5.54645 -3.22802
upperback 0.331303 6.76375 2.05457
thorax -12.1373 3.39621 1.99489
lowerneck -13.4908 -4.09367 -0.142893
upperneck 18.0327 -6.44897 4.00766
head 7.94385 -2.69595 0.64833
rclavicle 8.47133e-014 4.27387e-015
rhumerus 38.8712 21.4858 -68.6912
rradius 66.9028
rwrist 12.812
rhand -6.5528 27.2887
rfingers 7.12502
rthumb 19.3009 -1.77347
lclavicle 8.47133e-014 4.27387e-015
lhumerus -15.5115 -24.6411 81.3366
lradius 33.7973
lwrist 2.35189
lhand -7.77142 18.7236
lfingers 7.12502
lthumb 18.1288 47.8988
rfemur -27.2994 -29.9666 0.728996
rtibia 49.4411
rfoot -10.1209 -1.14232
rtoes 15.8285
lfemur -34.7271 21.2739 -18.0464
ltibia 74.3111
lfoot -32.9738 3.16362
ltoes 14.6904
1768
root 5.52461 14.3143 -9.31159 -361.698 -27.6716 355.833
lowerback 21.1007 5.64162 -3.41363
upperback 0.291735 6.83407 1.94766
thorax -12.1662 3.43661 1.95889
lowerneck -13.656 -4.20452 0.0186894
upperneck 18.0783 -6.6138 3.87312
head 7.98195 -2.77232 0.555788
rclavicle 1.75738e-014 4.96962e-016
rhumerus 38.5153 21.3036 -68.6054
rradius 66.954
rwrist 13.135
rhand -6.78878 27.729
rfingers 7.12502
rthumb 19.074 -1.35573
lclavicle 1.75738e-014 4.96962e-016
lhumerus -14.9798 -23.9708 80.8357
lradius 33.1983
lwrist 3.51146
lhand -7.6238 18.5084
lfingers 7.12502
lthumb 18.2708 47.6703
rfemur -27.8525 -30.2782 0.964839
rtibia 50.239
rfoot -9.95931 -0.908921
rtoes 14.2127
lfemur -34.5799 21.573 -17.6176
ltibia 74.1895
lfoot -32.6478 2.62389
ltoes 14.6148
1769
root 5.41002 14.3106 -9.36955 -361.932 -27.2842 356.198
lowerback 21.4626 5.56515 -3.74659
upperback 0.223954 6.63099 1.88306
thorax -12.4632 3.35882 2.10915
lowerneck -13.6247 -4.26177 -0.21443
upperneck 18.0908 -6.66049 3.96326
head 7.99249 -2.80174 0.618579
rclavicle -6.54685e-014 7.45443e-015
rhumerus 38.4049 21.4759 -68.4393
rradius 67.179
rwrist 12.6752
rhand -6.12165 27.3785
rfingers 7.12502
rthumb 19.7154 -1.64165
lclavicle -6.54685e-014 7.45443e-015
lhumerus -14.267 -22.9106 80.3489
lradius 32.5073
lwrist 5.09637
lhand -8.54087 17.9499
lfingers 7.12502
lthumb 17.3884 47.1922
rfemur -28.1315 -30.7134 0.911416
rtibia 51.1929
rfoot -10.114 -0.225205
rtoes 14.7609
lfemur -34.6332 21.3726 -17.3727
ltibia 74.2424
lfoot -32.182 2.47079
ltoes 14.2933
